# xmcd
#
# Track frame offsets:
#	150
#	15617
#	30681
#	41269
#	53430
#	68277
#	82805
#	95506
#	106938
#	124915
#	142094
#	158928
#	175538
#	191668
#	204404
#	220666
#	237597
#	248909
#	261567
#	275702
#	295431
#	312121
#
# Disc length: 4449 seconds
#
# Revision: 2
# Processed by: cddbd v1.5.1PL2 Copyright (c) Steve Scherf et al.
# Submitted via: EZCDDA 4.3.2
#
DISCID=37115f16
DTITLE=Ken Mullan - The Very Best of Ken Mullan
DYEAR=1900
DGENRE=
TTITLE0=Careless Hands
TTITLE1=After All These years
TTITLE2=In My Own Peculiar Way
TTITLE3=I Fall To Pieces
TTITLE4=When I Dream
TTITLE5=Love Is A Beautiful Song
TTITLE6=If You Didn't Love Me
TTITLE7=I Feel A Cry Coming On
TTITLE8=Jesse
TTITLE9=My Son
TTITLE10=No More Bloeros
TTITLE11=Maggie
TTITLE12=Rose Of My Heart
TTITLE13=Tomorrow Is Forever
TTITLE14=Lay Down Beside Me
TTITLE15=Unchained Melody
TTITLE16=I'll Take You Home
TTITLE17=Annie's Song
TTITLE18=Lonely And Blue
TTITLE19=My Heart Will Go On
TTITLE20=Give Her All The Roses
TTITLE21=Working Man
EXTD=
EXTT0=
EXTT1=
EXTT2=
EXTT3=
EXTT4=
EXTT5=
EXTT6=
EXTT7=
EXTT8=
EXTT9=
EXTT10=
EXTT11=
EXTT12=
EXTT13=
EXTT14=
EXTT15=
EXTT16=
EXTT17=
EXTT18=
EXTT19=
EXTT20=
EXTT21=
PLAYORDER=
